<svg version="1.0" xmlns="http://www.w3.org/2000/svg" viewBox="0 0 1280 1280"><path d="M487 175.1c-46.4 4-100.2 17.6-156.5 39.7l-15 5.9-10.2 35.4c-5.6 19.5-12.3 42.4-14.7 50.9-6.1 20.9-24.5 84.5-59.8 207-5.4 19-12 41.6-14.5 50.3-2.5 8.6-4.3 16-3.9 16.4.9 1 5.8-.6 23.6-7.6 77.5-30.7 148.2-44.7 201-40.1 57.8 5.1 102.6 22.3 166.5 63.9 6 3.9 11.5 7.1 12.1 7.1.6 0 3-6.6 5.3-14.8 2.3-8.1 6.2-21.7 8.7-30.2 2.5-8.5 7.9-27.2 12-41.5 4.2-14.3 10-34.3 12.9-44.5 2.9-10.2 8.3-28.6 11.9-41 3.5-12.4 9-31.3 12.1-42 5.8-19.9 13.5-46.4 31.4-108.5 5.6-19.2 9.9-35.5 9.6-36.2-1-2.7-35.9-24.3-57-35.4-37.7-19.7-77.2-31.5-117-34.9-13.8-1.1-44.6-1.1-58.5.1z" fill="#f1511b"/><path d="M651.7 712.2c-2.5 8.5-6.3 21.6-9.2 31.3-1.3 4.4-4.3 14.5-6.5 22.5-4.1 14.2-16.8 58.2-21.7 75-1.3 4.7-3.3 11.4-4.3 15-2.3 8.5-13.9 48.2-19.7 68-2.5 8.5-5.3 18.4-6.3 22-.9 3.6-2.4 8.7-3.3 11.5-.9 2.7-3.5 11.5-5.7 19.5-2.3 8-5.3 18.3-6.7 23-1.3 4.7-3.3 11.4-4.2 15-5 17.7-13.2 45.4-13.6 45.8-.6.6 19.9 14.1 35.5 23.4 26.7 16 56.2 29.1 82.6 36.7 49.9 14.5 111.1 14.7 172.9.4 11.3-2.5 31.1-7.7 35.5-9.3 1.4-.5 7.2-2.3 13-4.1 18.3-5.6 56.5-19.7 60.6-22.4 1.3-.8 2.5-3 2.9-5.2.3-2.1 1.5-6.3 2.5-9.3 1-3 3.7-12.3 6-20.5 2.3-8.3 4.8-17 5.5-19.5 2.4-8 6.2-21.1 11.5-39.5 4.9-17.2 6.8-23.5 12.4-42.5 1.4-4.7 4.4-15 6.6-23 4.1-14.2 6.8-23.6 11.4-39.5 2.3-7.7 5.3-18 10.2-35 1.2-4.4 3.5-12.1 4.9-17 1.5-5 3.5-11.9 4.5-15.5 1-3.6 4.3-15.3 7.5-26 9.1-31 10.5-36.2 12.1-42 .9-3 2.6-9.1 4-13.4 1.3-4.3 2.3-8 2.1-8.2-.1-.2-4.8 1.5-10.2 3.7-27 10.9-63.2 22.7-88.5 28.7-22.1 5.3-26.3 6.2-39.5 8.2-23.2 3.7-27.7 4-52.5 4.6-23.9.6-43.7-.3-56-2.7-35.7-6.7-46-9.7-73.5-20.9-17.4-7.1-45.9-22.6-67.4-36.7-6.3-4.1-11.9-7.7-12.6-7.9-.6-.3-1.8 2.3-2.8 5.8z" fill="#fbbc09"/><path d="M366.5 600c-49.1 5.1-90 15.1-145 35.5-27.2 10.1-25.9 9.4-27.8 15.6-2.3 7.6-9.6 33.4-11.4 39.9-.8 3-2.6 9.3-3.9 14-1.4 4.7-3.4 11.6-4.6 15.5-1.1 3.8-3 10.6-4.3 15-1.3 4.4-4 13.8-6 21-2 7.1-4 14.1-4.5 15.5-.5 1.4-2.3 7.7-4 14-1.7 6.3-4.2 15.1-5.5 19.5-1.3 4.4-4 13.8-6 21-2 7.1-4 14.1-4.5 15.5-.5 1.4-2.3 7.7-4 14-1.7 6.3-4.2 15.1-5.5 19.5-2.6 8.7-7.6 26.2-10.5 36.5-1 3.6-3.2 11.2-4.9 17-1.6 5.8-4.2 14.8-5.6 20-1.5 5.2-3.7 13.1-5 17.5-4.9 16.4-10.5 36.9-10.2 37.2.2.1 6.6-2.2 14.3-5.3 41.4-16.5 90.2-30.1 126.9-35.3 40.7-5.8 65.3-6.2 99.5-1.6 21.6 2.8 55.3 11.8 69.5 18.5 1.1.5 6.3 2.8 11.5 5 8.2 3.6 15.3 7.2 34.6 17.6 6 3.2 21.1 12.6 35.7 22.2 3.7 2.4 7 4.2 7.2 4 .2-.2 1.5-4.4 2.9-9.3 1.4-5 3.6-12.9 5-17.8 1.4-4.8 3.8-12.6 5.2-17.5 1.4-4.8 3.7-12.8 5.1-17.7 3.2-11.2 6.6-23 9.1-31.5 1.1-3.6 5.8-19.8 10.6-36 4.7-16.2 10.8-37.4 13.7-47 4.7-16 6.5-22.4 11.8-41 1-3.6 4.4-15.3 7.6-26 3.1-10.7 6.8-23.3 8.2-28 1.3-4.7 3.5-12.3 4.9-17 1.4-4.7 3.3-11.4 4.3-15 1-3.6 3.9-13.5 6.4-22 8.8-29.9 9.7-33.4 9-34.1-.5-.3-5.3-3.6-10.8-7.1-54.6-35.3-93.3-51.4-143-59.4-13.7-2.2-19.8-2.7-42-2.9-14.3-.2-29.6 0-34 .5z" fill="#00adef"/><path d="M773 292.2c-1.2 4-3.2 10.9-4.5 15.3-1.3 4.4-3.8 12.9-5.5 19-1.7 6-4.2 14.6-5.5 19-1.3 4.4-5.1 17.7-8.5 29.5-3.4 11.8-7.3 25.3-8.7 30-1.3 4.7-3.6 12.5-5 17.5-1.4 4.9-3.6 12.7-4.9 17.2-1.3 4.6-3.5 12-4.8 16.5-1.3 4.6-3.6 12.6-5.1 17.8-1.5 5.2-3.8 13.1-5 17.5-17.7 61.4-22.2 76.8-25.2 87-1.9 6.6-4.1 14.5-5 17.5-.8 3-3 10.9-5 17.5-4.7 16.2-8.4 29.7-8.1 30 2 1.8 26.9 17.3 37.9 23.6 61.9 35.5 118.5 49.7 183.2 46 40.4-2.4 75.6-9.6 120.3-24.7 16.4-5.5 59.4-22.7 59.4-23.7 0-.1.9-3.4 2.1-7.2 1.1-3.9 2.9-9.9 3.9-13.5.9-3.6 5.7-20 10.5-36.5s9.5-32.9 10.5-36.5c1-3.6 3.4-11.9 5.3-18.5 2-6.6 7.9-27.1 13.2-45.5 5.3-18.4 10.8-37.3 12.2-42 1.3-4.7 3.3-11.4 4.3-15 1-3.6 4.4-15.3 7.5-26 3.1-10.7 6.8-23.6 8.2-28.5 3.4-12 6.6-23.1 9.8-34 1.4-5 3.6-12.6 4.9-17 1.3-4.4 4-14 6.1-21.2 2.1-7.3 3.6-13.5 3.3-13.8-.3-.3-3.8.8-7.9 2.4-22.3 8.9-38 14.4-60.9 21.4-24.3 7.4-41.8 11.5-71 16.7-10.4 1.8-48 5-59.3 5-11.4 0-45.9-3.1-55.2-5-28.8-5.7-53-13.7-79.5-26.3-13.8-6.5-43.3-23.5-56-32.2-2.5-1.7-5.7-3.8-7.2-4.8l-2.7-1.7-2.1 7.2z" fill="#80cc28"/></svg>