<svg version="1.0" xmlns="http://www.w3.org/2000/svg" viewBox="0 0 6320 1280"><path d="M487 175.1c-46.4 4-100.2 17.6-156.5 39.7l-15 5.9-10.2 35.4c-5.6 19.5-12.3 42.4-14.7 50.9-6.1 20.9-24.5 84.5-59.8 207-5.4 19-12 41.6-14.5 50.3-2.5 8.6-4.3 16-3.9 16.4.9 1 5.8-.6 23.6-7.6 77.5-30.7 148.2-44.7 201-40.1 57.8 5.1 102.6 22.3 166.5 63.9 6 3.9 11.5 7.1 12.1 7.1.6 0 3-6.6 5.3-14.8 2.3-8.1 6.2-21.7 8.7-30.2 2.5-8.5 7.9-27.2 12-41.5 4.2-14.3 10-34.3 12.9-44.5 2.9-10.2 8.3-28.6 11.9-41 3.5-12.4 9-31.3 12.1-42 5.8-19.9 13.5-46.4 31.4-108.5 5.6-19.2 9.9-35.5 9.6-36.2-1-2.7-35.9-24.3-57-35.4-37.7-19.7-77.2-31.5-117-34.9-13.8-1.1-44.6-1.1-58.5.1z" fill="#f1511b"/><path d="M773 292.2c-1.2 4-3.2 10.9-4.5 15.3-1.3 4.4-3.8 12.9-5.5 19-1.7 6-4.2 14.6-5.5 19-1.3 4.4-5.1 17.7-8.5 29.5-3.4 11.8-7.3 25.3-8.7 30-1.3 4.7-3.6 12.5-5 17.5-1.4 4.9-3.6 12.7-4.9 17.2-1.3 4.6-3.5 12-4.8 16.5-1.3 4.6-3.6 12.6-5.1 17.8-1.5 5.2-3.8 13.1-5 17.5-17.7 61.4-22.2 76.8-25.2 87-1.9 6.6-4.1 14.5-5 17.5-.8 3-3 10.9-5 17.5-4.7 16.2-8.4 29.7-8.1 30 2 1.8 26.9 17.3 37.9 23.6 33.6 19.3 70.2 34 97.9 39.4 4.7.9 9.9 2 11.5 2.5 4.7 1.4 30.3 4.2 37.7 4.1 3.7-.1 7 .4 7.3.9.4.6.9.8 1.3.6.4-.2 8.3-.7 17.7-1 15.6-.6 44-3 47.5-4.1.8-.3 6.5-1.4 12.5-2.5 20.5-3.6 45.4-10.3 70.1-18.6 16.4-5.5 59.4-22.7 59.4-23.7 0-.1.9-3.4 2.1-7.2 1.1-3.9 2.9-9.9 3.9-13.5.9-3.6 5.7-20 10.5-36.5s9.5-32.9 10.5-36.5c1-3.6 3.4-11.9 5.3-18.5 2-6.6 7.9-27.1 13.2-45.5 5.3-18.4 10.8-37.3 12.2-42 1.3-4.7 3.3-11.4 4.3-15 1-3.6 4.4-15.3 7.5-26 3.1-10.7 6.8-23.6 8.2-28.5 3.4-12 6.6-23.1 9.8-34 1.4-5 3.6-12.6 4.9-17 1.3-4.4 4-14 6.1-21.2 2.1-7.3 3.6-13.5 3.3-13.8-.3-.3-3.8.8-7.9 2.4-22.3 8.9-38 14.4-60.9 21.4-24.3 7.4-41.8 11.5-71 16.7-10.4 1.8-48 5-59.3 5-11.4 0-45.9-3.1-55.2-5-28.8-5.7-53-13.7-79.5-26.3-13.8-6.5-43.3-23.5-56-32.2-2.5-1.7-5.7-3.8-7.2-4.8l-2.7-1.7-2.1 7.2z" fill="#80cc28"/><path d="M372.5 599.7c-50.2 4.1-93.2 14.3-151 35.8-27.2 10.1-25.9 9.4-27.8 15.6-2.3 7.6-9.6 33.4-11.4 39.9-.8 3-2.6 9.3-3.9 14-1.4 4.7-3.4 11.6-4.6 15.5-1.1 3.8-3 10.6-4.3 15-1.3 4.4-4 13.8-6 21-2 7.1-4 14.1-4.5 15.5-.5 1.4-2.3 7.7-4 14-1.7 6.3-4.2 15.1-5.5 19.5-1.3 4.4-4 13.8-6 21-2 7.1-4 14.1-4.5 15.5-.5 1.4-2.3 7.7-4 14-1.7 6.3-4.2 15.1-5.5 19.5-2.6 8.7-7.6 26.2-10.5 36.5-1 3.6-3.2 11.2-4.9 17-1.6 5.8-4.2 14.8-5.6 20-1.5 5.2-3.7 13.1-5 17.5-4.9 16.4-10.5 36.9-10.2 37.2.2.1 6.6-2.2 14.3-5.3 41.4-16.5 90.3-30.1 126.9-35.3 26-3.7 32.9-4.4 33.3-3.2.2.6.8 1.1 1.3 1.1.6 0 .7-.5.3-1.1-.5-.8 1.2-1 6-.7 3.6.2 6.6 0 6.6-.4 0-1 10.4-1 21.8-.1 5 .4 7.8.9 7 1.4-1 .7-.9.9.5.9.9 0 1.7-.5 1.7-1.1 0-.8 1.5-1 4.8-.5 2.6.4 9.9 1.3 16.2 2.1 21.2 2.7 55.2 11.8 69.5 18.5 1.1.5 6.3 2.8 11.5 5 8.2 3.6 15.3 7.2 34.6 17.6 6 3.2 21.1 12.6 35.7 22.2 3.7 2.4 7 4.2 7.2 4 .2-.2 1.5-4.4 2.9-9.3 1.4-5 3.6-12.9 5-17.8 1.4-4.8 3.8-12.6 5.2-17.5 1.4-4.8 3.7-12.8 5.1-17.7 3.2-11.2 6.6-23 9.1-31.5 1.1-3.6 5.8-19.8 10.6-36 4.7-16.2 10.8-37.4 13.7-47 4.7-16 6.5-22.4 11.8-41 1-3.6 4.4-15.3 7.6-26 3.1-10.7 6.8-23.3 8.2-28 1.3-4.7 3.5-12.3 4.9-17 1.4-4.7 3.3-11.4 4.3-15 1-3.6 3.9-13.5 6.4-22 8.8-29.9 9.7-33.4 9-34.1-1.5-1.3-21-13.7-33.6-21.3C548.4 639 525 627 512 621.7c-44.1-18.1-93.5-25.9-139.5-22z" fill="#00adef"/><path d="M651.7 712.2c-2.5 8.5-6.3 21.6-9.2 31.3-1.3 4.4-4.3 14.5-6.5 22.5-4.1 14.2-16.8 58.2-21.7 75-1.3 4.7-3.3 11.4-4.3 15-2.3 8.5-13.9 48.2-19.7 68-2.5 8.5-5.3 18.4-6.3 22-.9 3.6-2.4 8.7-3.3 11.5-.9 2.7-3.5 11.5-5.7 19.5-2.3 8-5.3 18.3-6.7 23-1.3 4.7-3.3 11.4-4.2 15-5 17.7-13.2 45.4-13.6 45.8-.6.6 19.9 14.1 35.5 23.4 26.7 16 56.2 29.1 82.6 36.7 49.9 14.5 111.1 14.7 172.9.4 11.3-2.5 31.1-7.7 35.5-9.3 1.4-.5 7.2-2.3 13-4.1 18.3-5.6 56.5-19.7 60.6-22.4 1.3-.8 2.5-3 2.9-5.2.3-2.1 1.5-6.3 2.5-9.3 1-3 3.7-12.3 6-20.5 2.3-8.3 4.8-17 5.5-19.5 2.4-8 6.2-21.1 11.5-39.5 4.9-17.2 6.8-23.5 12.4-42.5 1.4-4.7 4.4-15 6.6-23 4.1-14.2 6.8-23.6 11.4-39.5 2.3-7.7 5.3-18 10.2-35 1.2-4.4 3.5-12.1 4.9-17 1.5-5 3.5-11.9 4.5-15.5 1-3.6 4.3-15.3 7.5-26 9.1-31 10.5-36.2 12.1-42 .9-3 2.6-9.1 4-13.4 1.3-4.3 2.3-8 2.1-8.2-.1-.2-4.8 1.5-10.2 3.7-27 10.9-63.2 22.7-88.5 28.7-22.1 5.3-26.3 6.2-39.5 8.2-23.2 3.7-27.7 4-52.5 4.6-23.9.6-43.7-.3-56-2.7-35.7-6.7-46-9.7-73.5-20.9-17.4-7.1-45.9-22.6-67.4-36.7-6.3-4.1-11.9-7.7-12.6-7.9-.6-.3-1.8 2.3-2.8 5.8z" fill="#fbbc09"/><path d="m4961.8 482.2-.3 106.2-4.1-6.2c-14.2-21.7-33.8-36.5-57.8-43.8-13.2-4-23.9-5.4-41.1-5.4-41.4 0-74 12.3-101.1 38.3-28.1 26.8-45 61.6-52 107.2-2.7 17.2-2.7 65.1-.1 81 6.9 41.6 20.7 70.7 44.9 94.7 18.7 18.5 41.6 29.8 69.3 34.3 13.4 2.2 38.6 2 51.9-.5 19.4-3.5 35.3-9.7 49.4-19.1 10.8-7.3 27.4-24.4 34.7-35.8l6-9.3.3 29.1.2 29.1h55V376h-55l-.2 106.2zm-67 100.7c30.7 9.5 54 33.6 63.8 66.1l2.9 9.5v46l-.1 46-3 12c-7.5 29-23.7 53-45.7 67.3-14.4 9.4-27 13.1-47.5 13.9-21.8.8-34-1.5-49.7-9.3-26.2-13.2-45.4-41.4-53.1-78.4-2.7-13-2.8-14.5-2.8-41 .1-26.7.2-27.9 3.2-42 8.8-41.9 29.1-71.3 58.5-85 7.4-3.5 19-7 27.2-8.4 1.7-.2 10.4-.3 19.5-.1 15.3.2 17.3.5 26.8 3.4zM4191 384.1c-9.2 2.6-20.6 14.3-22.9 23.6-1.8 7.1-1.3 17.6 1.1 24 2.9 8 11.2 16.2 19.3 19.2 8.6 3.3 21.6 2.7 29.4-1.3 6.5-3.4 12.8-9.6 16.1-16.2 2.2-4.3 2.5-6.2 2.5-15.4s-.3-11.1-2.5-15.4c-3.5-6.9-10-13.3-16.8-16.4-4.6-2.1-7.4-2.7-14.2-2.9-4.7-.1-10.1.3-12 .8zM1736.5 398c-17 1.4-41.8 7.1-57.7 13.1-10 3.9-31 15.4-38.4 21.1-21 16.2-36 38.1-42.1 61.3-2.1 8.2-2.7 13-3 26.5-.8 26 2.4 39.9 13.2 59.1 13.2 23.4 33.9 42 69 62.2 6.6 3.8 26 14.1 43 22.9 35.6 18.5 53.1 28.4 64.8 36.7 17.4 12.5 31 28.6 35.8 42.8 2.1 6 2.4 8.6 2.4 22.3-.1 13.4-.4 16.5-2.4 23-6.5 20.7-21.3 35.1-44.6 43.5-15.2 5.5-26.7 7-53.5 7-25.4 0-32.5-.9-54.5-6.5-25.6-6.6-51.3-17.8-66.5-29.1-4.4-3.2-8.2-5.9-8.5-5.9-.3 0-.5 14.8-.5 32.8v32.8l8.3 4.1c4.5 2.2 11 5 14.3 6.2 11.6 3.8 37.9 9.9 55.4 12.8 16.4 2.6 19.3 2.8 45.5 2.7 25.5-.1 29.5-.3 44.5-2.8 9.1-1.5 19.9-3.6 24-4.7 47.9-12.8 80.8-41.2 92.9-80.4 5.2-16.6 6.7-43.1 3.6-61-5.5-31.2-29-62.6-65.5-87.4-16.7-11.4-33.3-20.7-71.5-40.3-47.1-24.2-57.5-30.8-71-44.9-13.9-14.6-18.3-24.9-19.2-45.4-.9-19.8 2.5-30.4 13.5-43.2 14.8-17.2 34.1-26.6 63.2-30.9 18.1-2.6 48.4-1.5 69 2.7 19.3 3.9 37.2 10.3 51 18.2 5.8 3.3 10.8 6.2 11.3 6.4.4.2.7-13.7.7-31v-31.4l-5.7-2.6c-12.8-5.7-35.2-10.5-59.3-12.7-12.7-1.1-47.5-1.1-61.5 0zM3559.4 643l70 239h32.8c18 0 32.8-.2 32.8-.5s22.3-79.2 49.4-175.3c27.2-96.1 50.7-179.6 52.1-185.6 1.4-6 3.3-16.7 4.2-23.8.9-7 2-12.8 2.3-12.8.4 0 1.2 5.7 1.9 12.7.7 7.1 2.3 17.7 3.6 23.8 1.4 6 24.6 89.9 51.7 186.2l49.3 175.3h66.1l66.9-236.7c36.8-130.2 67.1-237.8 67.3-239.1l.4-2.2-30.2.2-30.3.3-44.9 169c-53.1 200-58.2 219.8-60.2 233.4-2.2 14.8-2.7 14.7-4.6-.9-.6-5.2-2.3-14.7-3.7-20.9-1.5-6.3-25.4-94.5-53.3-196l-50.7-184.6h-53.7l-52.8 183c-54.1 187.6-59.8 208.1-62 222.9-1.8 13-2.6 11.9-4.9-7.4-.6-5.2-2.4-15.1-3.9-22-2.3-10.1-99.4-362.2-103.1-373.8l-1.1-3.2h-61.5l70.1 239zM2372.3 448.8l-26.3 8.6V540h-59v46h59v99.2c0 102.8.6 122.5 4 138.8 7.3 34.3 26.5 55.1 58 63.1 8.5 2.1 11.7 2.4 30 2.4 22.3 0 30.9-1.4 43.3-6.9l5.7-2.5v-45.9l-7.4 3.8c-9.2 4.6-16 6-28.9 6-23.6 0-37.4-8.4-43.9-26.8-5.1-14.7-5-13.3-5.5-126l-.4-105.2h86.1v-46h-86v-50c0-39.4-.3-50-1.2-49.9-.7.1-13.1 4-27.5 8.7zM2081 534.5c-29.4 5-54.6 17.3-75.9 37.2-30.9 28.7-49 65.4-54.7 111.3-2.8 22.7-1.4 60.6 3.1 83 11.6 57.9 42.8 97.1 91.5 115 19.6 7.2 37.5 9.5 68.4 8.7 42.1-1 71.8-8.8 100.9-26.5l7.7-4.7v-51.7l-4.7 3.6c-13.6 10.3-35.4 21.4-51.8 26.5-19.2 5.8-24.9 6.6-49 6.5-21.5 0-22.2-.1-33.8-3.3-45.6-12.3-71.9-47.3-77-102l-1.3-14.1h241.8l-.5-29.8c-.7-37.9-3.4-54.8-12.8-78.7-15.8-40.7-46.8-68.7-86.4-78.2-18-4.3-48.8-5.6-65.5-2.8zm51.5 48.3c5 1.6 11.8 4.5 15.3 6.4 24.3 13.6 39.7 42.3 41.8 77.9l.7 10.9h-185.1l2.3-10.8c9.2-42.1 35.1-73.5 69.5-84.2 11.9-3.6 14.2-3.9 32-3.5 12.7.4 15.6.8 23.5 3.3zM3093.5 535.1c-18.5 3.5-34.2 9.9-49.5 20.2-10.7 7.2-27.2 24.2-34.9 36-3.5 5.3-6.8 9.7-7.2 9.7-.5 0-.9-13.7-.9-30.5V540h-55v499h55V936c0-56.7.4-103 .8-103 .5 0 3.5 3.7 6.8 8.2 11.7 16.5 28.6 30.8 45 38.3 16.4 7.5 31.5 10.5 52.7 10.5 42.7 0 74.9-12.4 102.3-39.5 29.9-29.5 46.1-67.4 51.5-120.3 1.7-16.5.6-57.4-1.9-71.7-6.9-38.7-20.3-66.7-42.6-89.1-20.3-20.2-40.8-30.5-70.1-35-13.2-2-39.6-1.7-52 .7zm32.2 44.9c38.2 6.2 65.6 35.9 76 82.2 2.6 11.8 2.7 13.4 2.7 40.3 0 26.4-.2 28.8-2.8 42.5-3.8 20.1-10.1 37.5-19 52.4-13.5 22.7-30 35.8-54.2 43.3-8.4 2.6-9.9 2.7-28.4 2.7-19 0-19.8-.1-29.7-3.2-24.8-7.6-45.4-25.4-57.6-49.8-8.9-17.7-11.7-35.5-11.7-72.1.1-24.7 2.1-47.9 5.3-59.8 3.5-12.9 9.9-26.5 17.8-37.5 16.2-22.8 36.2-35.8 62.2-40.5 8.7-1.6 30.9-1.9 39.4-.5zM4481 534.9c-18.5 3.7-31.8 9.2-47 19.4-10 6.8-25 22.1-32.8 33.5-3.5 5-6.7 9.2-7.3 9.2-.5 0-.9-11.3-.9-28.5V540h-55v342h55v-94.9c0-100.4.5-114.3 4.5-131.7 8.1-34.5 31.9-61.9 63-72.5 9.8-3.3 10.3-3.3 27.5-3.4 16.7 0 17.9.2 26 2.9 27.2 9.2 42.5 29.4 50.2 66.1 2.1 9.7 2.2 12.9 2.5 121.7l.4 111.8h54.9V768.2c0-67.5-.4-117.5-1-123.1-6.3-59.9-35.3-98.1-82.8-109.3-12.9-3-44-3.5-57.2-.9zM5248.5 534.5c-61 8.4-106.2 42-128.7 95.7-10.1 24.1-14.8 50.9-14.8 84.8-.1 56.8 14.8 96.9 48.4 130.6 30.7 30.6 66.7 44.3 116.7 44.4 52.9 0 92.9-15.6 123.5-48.3 31.8-34 46.4-75.4 46.4-132 0-62.3-16.5-106.7-51.9-139-22-20.2-47.9-31.6-81.5-36.2-13.2-1.8-45.1-1.8-58.1 0zm57.6 47.8c39.8 10.5 64.7 40.1 74.6 88.7 2.6 12.9 2.7 14.8 2.7 41.5-.1 27.4-.2 28.3-3.2 42.5-4.1 19.2-10 33.8-19 47.1-13.5 20.2-30 31.8-54.7 38.6-9.5 2.6-11.1 2.8-31.5 2.8-18.8 0-22.6-.3-30-2.2-33.4-8.5-56.8-28.5-71.5-61.3-10-22.2-14.1-50.7-11.9-82.5 2.1-30.3 9.4-53.4 23.4-73.9 13.4-19.8 29.9-32.4 50.9-39 14.9-4.7 21.9-5.6 42.1-5.2 15.9.3 19.8.7 28.1 2.9zM6110.5 534.1c-52.7 5.9-94.5 35.7-105.2 74.9-1.4 5.1-1.8 10.2-1.8 23.5.1 14.7.4 18.1 2.4 25 6.2 21.3 19.5 37.7 41.3 50.9 11 6.7 31.7 16.5 53.3 25.1 37.1 14.9 48.9 21.6 59.1 32.9 7.8 8.7 10.6 15.6 11.2 27.7 1.4 28.1-14.7 44-49.6 49-12.7 1.8-43.2.7-55.2-2.1-19.7-4.4-38.7-12.5-55.7-23.5-4.6-3-8.6-5.5-8.8-5.5-.3 0-.4 13.1-.3 29.1l.3 29.1 9.8 4.4c12.3 5.3 30.8 10.7 45.2 13.1 8.6 1.4 16.5 1.8 36 1.8 28.9 0 41-1.7 62-8.6 35.8-11.7 62.1-36.4 70.2-65.9 1.4-5.1 1.8-10.2 1.8-24-.1-16.3-.3-18.1-2.9-26.5-8.2-26.3-27.2-44.4-65.1-62.2-6-2.8-21.8-9.5-35-14.8-27.7-11.2-36.3-15.4-46-22.8-13.5-10.3-19.1-22.3-18.3-39.5.6-12.9 3.3-19 12.5-28 7.6-7.5 15.8-12 28-15.5 7-1.9 10-2.2 28.3-2.1 18.2.1 21.8.4 32 2.7 14.9 3.4 30.3 9.1 41.6 15.6l8.9 5.1.3-27.2c.1-14.9-.1-27.5-.5-27.9-1.3-1.3-16.9-6.7-25.6-9-20.5-5.3-52-7.3-74.2-4.8zM2552 638.7c0 104.8.7 130.3 4.1 150.2 10 59.6 41.4 92.5 95.3 100 4.3.6 14.6 1.1 23.1 1.1 45.5 0 77.4-17.2 101.3-54.5l5.2-8V882h55V540h-54.9l-.3 109.7-.3 109.8-2.7 10.7c-9 35.2-30.1 59.6-60.3 69.9-10 3.4-10.1 3.4-28 3.3-16.5-.1-18.7-.3-26.4-2.7-28.7-9.1-45.5-30.7-52.2-67-3.2-17.9-3.9-40.2-3.9-139V540h-55v98.7zM4173 711v171h55V540h-55v171zM5532 710.7l51.6 170.8 27.6.3 27.6.2 1.1-3.2c6.6-20.6 74.1-238.2 76.5-246.8 1.9-6.3 3.9-14.8 4.6-18.8.6-3.9 1.5-7.2 2-7.2.4 0 1.1 3.5 1.5 7.7.4 4.3 1.7 12.3 3 17.8 1.7 7.1 65.6 231 71.1 248.8.5 1.6 2.5 1.7 29.1 1.5l28.6-.3 50.8-169.5c28-93.2 50.9-170.1 50.9-170.8 0-.9-6-1.2-26.7-1.2h-26.8l-35.2 131.3c-40.3 150.1-38 141.2-39 150.3-.6 5.1-1.2 6.9-2.3 6.9-1.1 0-1.8-2.2-2.6-9-1.7-13.4-1.7-13.6-39.4-151-19.3-70.2-35-127.7-35-128 0-.3-11.2-.5-25-.5h-24.9l-4 12.7c-15.1 48.3-75.3 245.3-76.9 251.8-1.2 4.4-2.3 10.2-2.7 13-1.1 8.6-1.6 10.5-3 10.5-.9 0-1.5-2.2-2-7.3-.3-3.9-1.3-10.6-2.2-14.7-.8-4.1-17.5-65.5-36.9-136.3-19.5-70.8-35.4-129-35.4-129.2 0-.3-13-.5-28.8-.5h-28.9l51.7 170.7z"/></svg>